<?xml version="1.0" encoding="utf-8"?>
<!-- Generator: Adobe Illustrator 16.0.1, SVG Export Plug-In . SVG Version: 6.00 Build 0)  -->
<!DOCTYPE svg PUBLIC "-//W3C//DTD SVG 1.1//EN" "http://www.w3.org/Graphics/SVG/1.1/DTD/svg11.dtd">
<svg version="1.1" id="Layer_1" xmlns="http://www.w3.org/2000/svg" xmlns:xlink="http://www.w3.org/1999/xlink" x="0px" y="0px"
	 width="56.556px" height="56.68px" viewBox="0 0 56.556 56.68" enable-background="new 0 0 56.556 56.68" xml:space="preserve">
<circle fill="#FFFFFF" fill-opacity="0.7" cx="28.375" cy="28.442" r="24.498"/>
<g>
	<g>
		<path fill="#859F3C" d="M0.278,28.442c0,15.463,12.535,27.999,28,27.999s28-12.535,28-27.999c0-15.464-12.535-28-28-28
			S0.278,12.978,0.278,28.442z M3.877,28.442c0-13.529,10.968-24.497,24.497-24.497s24.498,10.969,24.498,24.497
			c0,13.53-10.969,24.497-24.498,24.497S3.877,41.972,3.877,28.442z"/>
	</g>
	
		<polygon fill="#859F3C" stroke="#859F3C" stroke-width="3" stroke-linecap="square" stroke-linejoin="round" stroke-miterlimit="10" points="
		35.124,27.883 35.902,28.625 25.349,41.304 24.376,40.653 	"/>
	
		<polygon fill="#859F3C" stroke="#859F3C" stroke-width="3" stroke-linecap="square" stroke-linejoin="round" stroke-miterlimit="10" points="
		24.502,15.984 23.747,16.748 34.669,29.113 35.622,28.433 	"/>
</g>
</svg>
